<?xml version="1.0" encoding="utf-8" ?>
<svg xmlns="http://www.w3.org/2000/svg" xmlns:xlink="http://www.w3.org/1999/xlink" width="512" height="512">
	<defs>
		<linearGradient id="gradient_0" gradientUnits="userSpaceOnUse" x1="255.90379" y1="511.75095" x2="255.84578" y2="-0.00049275497">
			<stop offset="0" stop-color="#D70605"/>
			<stop offset="1" stop-color="#FF473D"/>
		</linearGradient>
	</defs>
	<path fill="url(#gradient_0)" d="M0 0L250.305 0L265.227 0L512 0L512 250.602L512 265.177L512 512L265.249 512L250.257 512L0 512L0 265.207L0 250.565L0 0ZM0 0L0 250.565C0.169915 250.303 0.271283 250.084 0.355237 249.782C2.4379 242.3 6.50835 236.221 12.9902 231.897Q14.5861 230.846 16.2943 229.991Q18.0025 229.135 19.7994 228.486Q21.5964 227.836 23.4571 227.403Q25.3179 226.969 27.2167 226.757C31.3255 226.333 35.5357 226.492 39.6611 226.497L58.0547 226.511L118 226.515L161.378 226.515C167.514 226.512 177.788 225.851 183.356 226.943C180.014 224.139 176.989 220.971 173.907 217.889L160.977 204.945L119.875 163.834L89.2551 133.21C83.6308 127.602 76.975 121.896 72.2554 115.564Q71.8101 114.961 71.3952 114.336Q70.9803 113.711 70.5968 113.067Q70.2133 112.423 69.8621 111.76Q69.5108 111.098 69.1928 110.419Q68.8747 109.74 68.5906 109.046Q68.3065 108.352 68.0571 107.645Q67.8076 106.937 67.5934 106.219Q67.3792 105.5 67.2008 104.772Q67.0223 104.044 66.8801 103.307Q66.7379 102.571 66.6322 101.829Q66.5265 101.086 66.4576 100.34Q66.3888 99.5929 66.3569 98.8438Q66.325 98.0946 66.3302 97.3447Q66.3354 96.5949 66.3777 95.8462Q66.4199 95.0976 66.4991 94.3519Q66.5783 93.6062 66.6942 92.8654C68.0055 84.3042 72.5699 76.9994 79.5404 71.9077C86.0666 67.1403 94.8131 65.4841 102.721 66.7352C108.338 67.6237 113.275 70.0565 117.668 73.6369C120.278 75.7642 122.607 78.3912 124.986 80.7806L138.091 93.9375L179.292 135.14L211.218 167.079L220.362 176.218C222.633 178.491 225.073 180.71 226.956 183.325C225.939 178.666 226.497 171.354 226.495 166.334L226.491 134.102L226.486 66.6476C226.481 54.3992 226.11 42.0221 226.581 29.7901Q226.711 26.0122 227.748 22.3771C230.156 13.7445 235.525 6.74602 243.566 2.70735C245.581 1.695 248.055 1.32831 249.964 0.207278C250.078 0.139891 250.191 0.0690927 250.305 0L0 0ZM265.227 0C265.367 0.0746363 265.506 0.151198 265.648 0.223909C267.324 1.087 269.285 1.40124 271.027 2.25827C278.578 5.97383 284.78 12.3615 287.509 20.4477C288.392 23.0651 288.815 25.9255 288.945 28.6783C289.388 38.0638 289.032 47.634 289.029 57.0379L289.026 110.353L289.027 157.295C289.026 165.744 289.404 174.375 288.88 182.798L289.087 182.609C291.423 180.435 293.458 177.892 295.69 175.602C300.464 170.702 305.357 165.909 310.199 161.076L370.991 100.176L385.805 85.3542C389.705 81.4328 393.793 76.702 398.437 73.6722C403.703 70.2367 410.461 68.3409 416.734 68.538C424.825 68.7921 433.042 72.3377 438.557 78.3154C444.494 84.7516 447.42 92.5306 446.993 101.295Q446.948 102.413 446.823 103.526Q446.697 104.638 446.49 105.738Q446.284 106.838 445.998 107.92Q445.712 109.002 445.348 110.061Q444.984 111.119 444.543 112.148Q444.103 113.177 443.589 114.172Q443.076 115.166 442.491 116.12Q441.906 117.075 441.253 117.984C437.083 123.744 431.334 128.684 426.307 133.707L400.155 159.859L357.376 202.695C349.67 210.412 342.11 218.595 333.988 225.866Q333.472 226.333 332.943 226.786Q353.418 226.416 373.896 226.584L438.203 226.578L468.877 226.577C474.624 226.577 480.924 226.075 486.595 227.016C492.538 228.001 498.577 231.009 502.953 235.128C506.496 238.462 508.957 242.554 510.755 247.041C511.22 248.201 511.494 249.475 512 250.602L512 0L265.227 0ZM0 265.207L0 512L250.257 512C248.548 511.011 246.321 510.422 244.486 509.618C238.958 507.195 234.358 502.892 231.168 497.798C228.84 494.081 227.187 489.898 226.734 485.521C226.276 481.104 226.382 476.618 226.384 472.183L226.398 454.571L226.409 397.128L226.411 354.29C226.409 348.701 225.757 337.629 226.889 332.761L154.522 405.462L131.676 428.35C127.71 432.32 123.823 436.469 119.696 440.268C113.154 446.29 105.251 449.818 96.2524 449.406Q95.4693 449.37 94.6889 449.296Q93.9085 449.222 93.1328 449.109Q92.357 448.997 91.5878 448.846Q90.8186 448.695 90.0577 448.506Q89.2969 448.317 88.5464 448.09Q87.7959 447.864 87.0574 447.601Q86.319 447.338 85.5945 447.038Q84.8701 446.739 84.1613 446.404Q83.4525 446.069 82.7612 445.7Q82.0698 445.33 81.3976 444.927Q80.7254 444.524 80.074 444.087Q79.4226 443.651 78.7935 443.184Q78.1645 442.716 77.5594 442.218Q76.9542 441.719 76.3745 441.191Q75.7948 440.664 75.2419 440.108Q74.689 439.552 74.1643 438.97Q73.6574 438.409 73.1787 437.823Q72.7 437.238 72.2508 436.63Q71.8015 436.021 71.3828 435.392Q70.964 434.762 70.5768 434.112Q70.1895 433.463 69.8347 432.795Q69.4799 432.127 69.1585 431.443Q68.837 430.758 68.5497 430.059Q68.2623 429.359 68.0098 428.646Q67.7572 427.934 67.54 427.209Q67.3229 426.485 67.1417 425.751Q66.9604 425.017 66.8156 424.274Q66.6708 423.532 66.5627 422.784Q66.4545 422.035 66.3834 421.282Q66.3123 420.529 66.2783 419.774Q66.2444 419.019 66.2477 418.262Q66.251 417.506 66.2915 416.751Q66.3532 415.604 66.4967 414.465Q66.6403 413.326 66.8649 412.199Q67.0895 411.073 67.3941 409.966Q67.6986 408.859 68.0815 407.776Q68.4644 406.694 68.9238 405.641Q69.3831 404.589 69.9165 403.572Q70.4499 402.555 71.0546 401.579Q71.6593 400.602 72.3323 399.672C76.3909 394.112 81.9488 389.415 86.784 384.523Q100.888 370.188 115.165 356.026L157.79 313.354C166.06 305.096 174.187 296.501 182.964 288.785C174.857 289.448 166.438 289.019 158.295 289.02L112.842 289.02L58.2145 289.026C48.666 289.026 38.8863 289.452 29.365 288.912C26.0746 288.726 22.592 288.061 19.5111 286.877C12.6321 284.235 6.31032 278.916 2.94016 272.298C1.81222 270.083 1.12511 267.7 0.107161 265.441L0 265.207ZM333.015 288.933C342.192 297.852 351.165 306.997 360.213 316.048L407.562 363.421L428.565 384.414C432.846 388.669 437.905 392.968 441.399 397.876C445.134 403.121 446.916 408.86 447.032 415.271Q447.049 416.054 447.028 416.836Q447.006 417.619 446.946 418.4Q446.885 419.18 446.786 419.957Q446.687 420.734 446.549 421.505Q446.411 422.275 446.236 423.038Q446.06 423.801 445.847 424.555Q445.633 425.308 445.383 426.05Q445.132 426.792 444.845 427.52Q444.558 428.248 444.235 428.962Q443.912 429.675 443.554 430.371Q443.196 431.068 442.804 431.745Q442.412 432.423 441.986 433.08Q441.561 433.738 441.104 434.373Q440.646 435.009 440.158 435.621Q439.669 436.233 439.151 436.82Q438.633 437.407 438.086 437.967C432.4 443.751 423.998 447.188 415.912 447.153C409.113 447.124 402.777 444.906 397.235 441.029C393.962 438.74 391.125 435.37 388.311 432.539L373.641 417.839L316.112 360.31L298.943 343.103C295.602 339.753 292.33 336.086 288.635 333.136C289.559 338.461 288.996 348.756 288.992 354.517L288.985 398.479L288.984 456.318L288.991 473.931C288.992 477.591 289.153 481.355 288.753 484.996C288.198 490.04 286.501 494.784 283.588 498.949C280.515 503.345 276.089 507.506 271.137 509.695C269.254 510.527 267.022 510.984 265.249 512L512 512L512 265.177L511.804 265.574C510.92 267.402 510.517 269.447 509.627 271.298Q509.296 271.988 508.933 272.66Q508.569 273.333 508.173 273.987Q507.777 274.641 507.35 275.276Q506.923 275.91 506.465 276.523Q506.008 277.136 505.521 277.725Q505.035 278.315 504.52 278.881Q504.005 279.446 503.464 279.986Q502.922 280.526 502.355 281.039Q501.788 281.552 501.197 282.037Q500.605 282.522 499.991 282.978Q499.377 283.433 498.741 283.859Q498.106 284.284 497.45 284.678Q496.795 285.072 496.121 285.434Q495.447 285.795 494.757 286.124Q494.066 286.453 493.361 286.747Q492.655 287.042 491.936 287.302C489.181 288.276 486.102 288.824 483.188 288.975C474.34 289.434 465.325 289.073 456.457 289.073L405.382 289.069L358.169 289.064C349.838 289.061 341.319 289.434 333.015 288.933Z"/>
</svg>
