<?xml version="1.0" encoding="utf-8" ?>
<svg xmlns="http://www.w3.org/2000/svg" xmlns:xlink="http://www.w3.org/1999/xlink" width="512" height="512">
	<path d="M0 0L166.413 0L473.632 0L512 0L512 39.1112L512 345.101L512 512L238.908 512L18.707 512L17.0182 512L0 512L0 494.929L0 273.302L0 0ZM0 0L0 273.302L0 494.929L0 512L17.0182 512L18.707 512L238.908 512L512 512L512 345.101C511.976 345.172 511.951 345.242 511.928 345.312C510.946 348.351 510.644 351.64 509.656 354.743C506.219 365.531 498.572 374.085 488.608 379.286C485.296 381.015 480.614 383.153 476.857 383.417C471.322 383.807 465.695 383.696 460.147 383.701L435.864 383.7L360.103 383.699L223.519 383.696L190.194 383.702C181.975 383.706 165.73 384.593 158.364 382.252Q157.33 381.926 156.314 381.549Q155.298 381.172 154.301 380.745Q153.305 380.318 152.331 379.842Q151.358 379.365 150.409 378.841Q149.46 378.317 148.539 377.746Q147.617 377.175 146.725 376.559Q145.833 375.943 144.973 375.284Q144.113 374.624 143.287 373.922Q142.461 373.22 141.671 372.478Q140.88 371.736 140.128 370.956Q139.376 370.176 138.664 369.359Q137.951 368.542 137.28 367.69Q136.61 366.839 135.982 365.955Q135.354 365.071 134.772 364.157Q134.189 363.243 133.652 362.301Q133.116 361.359 132.627 360.392C131.481 358.151 130.458 355.867 129.674 353.474C129.686 353.443 129.696 353.411 129.708 353.381C130.458 351.515 129.659 347.937 129.616 345.812C129.309 330.752 129.491 315.659 129.493 300.595L129.486 93.7706L129.486 52.0193C129.495 47.5659 130.243 35.6569 129.167 32.0643C130.13 29.0022 131.304 26.1005 132.771 23.2424C138.075 12.9065 146.768 5.52956 157.858 1.92769C160.592 1.03966 163.549 0.956078 166.216 0.0688623C166.282 0.0469452 166.347 0.0229541 166.413 0L0 0ZM319.658 85.4935C319.237 96.1415 319.572 106.827 319.594 117.479L353.097 117.47C358.185 117.47 363.388 117.224 368.458 117.476C369.169 117.511 369.844 117.544 370.471 117.91C370.598 118.458 370.696 118.657 370.356 119.168C368.746 121.592 364.564 125.163 362.405 127.321L342.344 147.337L247.382 242.337L225.089 264.648C222.115 267.627 217.761 272.75 214.393 274.967C213.999 275.226 213.873 275.413 213.703 275.849C215.194 277.926 217.206 279.629 219.009 281.433L229.582 292.031C231.709 294.16 234.075 296.203 235.878 298.62C237.749 295.973 240.392 293.65 242.687 291.362L253.666 280.425L270.381 263.706C273.134 260.952 275.822 258.005 278.709 255.405C286.7 247.027 295.108 238.967 303.3 230.777L350.824 183.257L378.301 155.788C383.472 150.623 388.557 144.969 394.194 140.334C393.89 157.609 394.06 175.022 394.358 192.298L415.812 192.276C419.358 192.283 422.991 192.127 426.522 192.352L426.497 130.917L426.498 114.537C426.497 110.685 426.776 106.615 426.059 102.819C425.274 98.6676 423.38 94.8602 420.374 91.866C417.418 88.9223 413.613 86.7741 409.504 85.9561C406.12 85.2823 402.516 85.5151 399.081 85.5266L385.641 85.5613L342.169 85.5575C334.707 85.5549 327.101 85.8551 319.658 85.4935ZM473.632 0C473.707 0.0228244 473.781 0.046478 473.856 0.0684732C476.353 0.804278 478.984 0.974653 481.52 1.77085C491.712 4.97161 500.742 11.9285 505.952 21.28C508.16 25.2419 509.771 29.2332 510.806 33.6563C511.217 35.4088 511.382 37.4408 512 39.1112L512 0L473.632 0Z"/>
	<path d="M129.674 353.474C129.201 351.942 128.619 350.382 128.555 348.77C128.15 338.61 128.277 328.426 128.276 318.26L128.274 274.588L128.275 139.584L128.276 68.4198C128.275 61.2726 127.511 37.5347 129.167 32.0643C130.243 35.6569 129.495 47.5659 129.486 52.0193L129.486 93.7706L129.493 300.595C129.491 315.659 129.309 330.752 129.616 345.812C129.659 347.937 130.458 351.515 129.708 353.381C129.696 353.411 129.686 353.443 129.674 353.474Z"/>
	<path d="M0 273.302C0.0702641 273.172 0.142004 273.043 0.210792 272.912C1.04375 271.331 1.40241 269.428 2.09779 267.771C4.07123 263.067 8.00219 260.234 12.2635 257.802C14.1215 256.741 17.1508 256.558 19.2613 256.425C24.4775 256.096 29.7976 256.261 35.0249 256.259L60.8645 256.261L76.3139 256.278C78.9737 256.292 82.1512 256.047 84.7526 256.604L84.6645 256.912L85.0426 257.07C85.0247 257.239 84.992 257.407 84.989 257.576C84.9877 257.654 85.0833 258.409 85.0856 258.429C85.5996 262.914 85.2135 267.829 85.2093 272.364Q85.0711 285.555 85.4182 298.741C80.5114 298.369 75.4999 298.532 70.5789 298.528L42.469 298.623C41.8318 308.91 42.2114 319.39 42.2105 329.702L42.2069 383.543L42.2098 438.464C42.2113 448.758 41.8303 459.211 42.4425 469.486L155.268 469.466L193.046 469.466C199.829 469.466 206.743 469.207 213.511 469.565L213.459 426.638C217.868 426.149 251.674 426.042 254.718 426.835C255.24 427.65 255.297 428.727 255.355 429.677C255.652 434.564 255.534 439.548 255.54 444.446L255.549 467.62L255.516 485.309C255.486 489.069 255.7 493.301 254.9 496.983C253.943 501.388 250.397 506.115 246.575 508.465C244.189 509.932 241.124 510.451 238.908 512L18.707 512L17.0182 512L0 512L0 494.929L0 273.302ZM0 494.929L0 512L17.0182 512C15.5802 511.148 13.7843 510.597 12.1972 510.072C7.29773 507.252 4.28001 504.58 1.90164 499.37C1.2901 498.03 0.852316 496.592 0.184126 495.284L0 494.929ZM12.1972 510.072C13.7843 510.597 15.5802 511.148 17.0182 512L18.707 512C17.5428 510.995 17.748 510.218 15.9172 509.584C14.7738 509.189 13.2391 509.558 12.1972 510.072Z"/>
	<path d="M12.1972 510.072C13.2391 509.558 14.7738 509.189 15.9172 509.584C17.748 510.218 17.5428 510.995 18.707 512L17.0182 512C15.5802 511.148 13.7843 510.597 12.1972 510.072Z"/>
</svg>
