<?xml version="1.0" encoding="utf-8" ?>
<svg xmlns="http://www.w3.org/2000/svg" xmlns:xlink="http://www.w3.org/1999/xlink" width="512" height="512">
	<path d="M106.031 240.018C111.442 221.74 121.838 206.808 138.794 197.544Q140.235 196.758 141.712 196.044Q143.19 195.329 144.701 194.688Q146.212 194.048 147.753 193.482Q149.293 192.916 150.86 192.426Q152.427 191.937 154.015 191.525Q155.604 191.113 157.211 190.78Q158.818 190.446 160.44 190.192Q162.061 189.938 163.693 189.764Q165.325 189.59 166.964 189.496Q168.602 189.403 170.244 189.39Q171.885 189.377 173.525 189.444Q175.165 189.512 176.799 189.66Q178.434 189.808 180.059 190.036Q181.684 190.265 183.297 190.572Q184.909 190.88 186.504 191.267Q188.099 191.653 189.673 192.118Q191.254 192.59 192.81 193.139Q194.366 193.688 195.893 194.313Q197.42 194.938 198.914 195.637Q200.408 196.336 201.866 197.109Q203.324 197.881 204.743 198.724Q206.161 199.567 207.536 200.478Q208.911 201.39 210.24 202.368Q211.568 203.347 212.847 204.389Q214.126 205.432 215.352 206.536Q216.577 207.64 217.747 208.804Q218.917 209.967 220.029 211.186Q221.14 212.406 222.19 213.679Q223.24 214.951 224.226 216.274Q225.212 217.597 226.132 218.967Q227.051 220.337 227.902 221.75Q228.754 223.163 229.534 224.617C232.077 229.357 234.149 234.511 235.351 239.761C242.743 240.535 251.008 240 258.512 239.992L301.038 239.989L441.064 239.993L479.11 239.98C485.147 239.978 493.035 239.423 498.807 240.327Q499.505 240.439 500.189 240.616Q500.874 240.792 501.539 241.031Q502.204 241.27 502.844 241.57Q503.484 241.87 504.094 242.227Q504.704 242.584 505.278 242.997Q505.852 243.409 506.386 243.873Q506.919 244.336 507.408 244.847Q507.896 245.358 508.335 245.912C510.049 248.067 510.953 250.544 512 253.05L512 258.972C509.644 264.295 507.522 268.724 501.704 270.965C499.438 271.838 497.287 271.978 494.891 272.043C477.863 272.506 460.725 272.086 443.683 272.083L344.287 272.081L270.864 272.082L246.915 272.088C243.117 272.091 239.247 272.291 235.459 272.101C230.32 290.174 219.495 305.125 202.902 314.333Q201.476 315.133 200.012 315.861Q198.548 316.588 197.05 317.242Q195.552 317.896 194.022 318.474Q192.493 319.052 190.937 319.553Q189.381 320.054 187.802 320.476Q186.222 320.899 184.624 321.242Q183.026 321.586 181.412 321.849Q179.799 322.112 178.174 322.294Q176.549 322.476 174.918 322.576Q173.286 322.677 171.651 322.696Q170.016 322.715 168.383 322.653Q166.749 322.59 165.121 322.446Q163.492 322.302 161.873 322.077Q160.254 321.852 158.648 321.546Q157.042 321.241 155.453 320.855Q153.864 320.469 152.297 320.005Q150.719 319.543 149.165 319.005Q147.612 318.466 146.087 317.852Q144.561 317.238 143.068 316.55Q141.575 315.861 140.117 315.101Q138.659 314.34 137.24 313.509Q135.822 312.678 134.445 311.779Q133.069 310.879 131.739 309.913Q130.408 308.947 129.126 307.917Q127.845 306.887 126.615 305.795Q125.386 304.703 124.211 303.553Q123.037 302.402 121.92 301.195Q120.803 299.988 119.747 298.728Q118.691 297.468 117.697 296.158Q116.704 294.848 115.776 293.49Q114.849 292.133 113.989 290.731Q113.128 289.33 112.338 287.888C109.595 282.883 107.687 277.692 106.225 272.193C97.8816 271.952 89.5111 272.081 81.1645 272.083L40.1569 272.09L24.8725 272.094C20.4581 272.097 15.9842 272.309 11.6319 271.434C9.03852 270.912 6.22225 268.905 4.42604 266.992C1.74736 264.138 1.72498 262.163 0 259.273L0 252.603L0.113578 252.405C3.01509 247.248 3.92902 242.798 10.7562 240.815C15.8534 239.334 22.1243 239.979 27.4142 239.979L44.6582 239.98L106.031 240.018ZM167.167 221.853C158.652 222.347 150.628 226.676 144.97 232.971Q144.409 233.604 143.88 234.263Q143.351 234.922 142.854 235.606Q142.358 236.29 141.895 236.997Q141.432 237.704 141.004 238.433Q140.576 239.162 140.184 239.911Q139.792 240.66 139.437 241.427Q139.082 242.194 138.764 242.977Q138.447 243.76 138.168 244.558Q137.889 245.356 137.649 246.167Q137.409 246.977 137.208 247.798Q137.008 248.619 136.848 249.449Q136.688 250.279 136.568 251.116Q136.448 251.953 136.369 252.794Q136.29 253.636 136.252 254.48Q136.214 255.324 136.217 256.17Q136.22 257.015 136.264 257.859Q136.312 258.717 136.402 259.572Q136.493 260.426 136.625 261.275Q136.758 262.125 136.932 262.966Q137.106 263.808 137.322 264.64Q137.538 265.471 137.794 266.292Q138.051 267.112 138.348 267.918Q138.644 268.725 138.981 269.516Q139.317 270.307 139.692 271.08Q140.067 271.853 140.48 272.607Q140.893 273.361 141.342 274.093Q141.792 274.826 142.277 275.535Q142.762 276.244 143.282 276.929Q143.801 277.613 144.354 278.271Q144.907 278.929 145.492 279.559Q146.077 280.189 146.692 280.789Q147.307 281.389 147.951 281.958C155.362 288.469 164.554 291.099 174.303 290.39L174.706 290.357C184.42 288.914 192.794 284.35 198.683 276.37Q199.189 275.682 199.66 274.97Q200.13 274.258 200.565 273.524Q201 272.789 201.398 272.034Q201.796 271.279 202.156 270.505Q202.517 269.731 202.838 268.94Q203.159 268.149 203.44 267.343Q203.722 266.537 203.963 265.719Q204.204 264.9 204.405 264.07Q204.605 263.24 204.764 262.401Q204.923 261.563 205.04 260.717Q205.157 259.871 205.231 259.021Q205.306 258.171 205.339 257.318Q205.372 256.465 205.362 255.611Q205.352 254.758 205.3 253.906Q205.248 253.053 205.154 252.205Q205.059 251.357 204.923 250.514Q204.789 249.675 204.614 248.843Q204.438 248.011 204.222 247.189Q204.006 246.366 203.75 245.556Q203.494 244.745 203.198 243.948Q202.902 243.151 202.567 242.37Q202.232 241.588 201.86 240.824Q201.487 240.06 201.077 239.315Q200.667 238.571 200.221 237.847Q199.775 237.123 199.294 236.423Q198.812 235.722 198.297 235.045Q197.782 234.369 197.234 233.719Q196.687 233.069 196.108 232.446Q195.529 231.824 194.919 231.231Q194.31 230.638 193.673 230.075Q193.035 229.513 192.371 228.982Q191.707 228.452 191.017 227.955C183.831 222.758 175.909 221.107 167.167 221.853Z"/>
	<path d="M276.383 378.374C277.652 374.397 278.908 370.469 280.644 366.664Q281.217 365.405 281.843 364.17Q282.468 362.936 283.145 361.728Q283.821 360.521 284.547 359.343Q285.273 358.165 286.047 357.018Q286.822 355.871 287.643 354.757Q288.465 353.644 289.332 352.565Q290.199 351.487 291.111 350.446Q292.022 349.404 292.976 348.402Q293.93 347.399 294.925 346.438Q295.92 345.476 296.954 344.556Q297.989 343.637 299.06 342.761Q300.132 341.885 301.239 341.055Q302.346 340.225 303.487 339.441Q304.628 338.658 305.8 337.923Q306.972 337.188 308.174 336.502Q309.376 335.816 310.606 335.181Q312.066 334.43 313.561 333.752Q315.057 333.074 316.584 332.47Q318.11 331.866 319.665 331.338Q321.22 330.81 322.798 330.359Q324.377 329.908 325.976 329.535Q327.575 329.162 329.191 328.868Q330.806 328.574 332.434 328.36Q334.062 328.145 335.698 328.011Q337.334 327.878 338.975 327.824Q340.616 327.771 342.258 327.798Q343.9 327.825 345.538 327.933Q347.177 328.041 348.808 328.229Q350.439 328.418 352.059 328.686Q353.678 328.954 355.283 329.301Q356.888 329.649 358.473 330.075Q360.059 330.501 361.622 331.004Q363.19 331.513 364.73 332.098Q366.271 332.683 367.78 333.344Q369.29 334.005 370.766 334.739Q372.241 335.473 373.678 336.28Q375.116 337.086 376.511 337.962Q377.907 338.838 379.258 339.782Q380.609 340.726 381.912 341.735Q383.215 342.744 384.466 343.817Q385.717 344.889 386.914 346.022Q388.111 347.155 389.251 348.345Q390.391 349.536 391.47 350.781Q392.55 352.026 393.566 353.323Q394.583 354.62 395.535 355.965Q396.486 357.311 397.37 358.702Q398.254 360.092 399.069 361.525Q399.883 362.958 400.626 364.429C402.872 368.892 404.365 373.472 405.874 378.21C414.207 378.593 422.615 378.364 430.959 378.362L473.577 378.353L488.028 378.351C491.781 378.35 495.679 378.14 499.382 378.835C502.594 379.439 505.449 381.086 507.651 383.498C509.787 385.838 510.918 388.614 512 391.545L512 397.219C509.873 402.689 507.592 406.749 502.019 409.277C499.955 410.213 497.196 410.43 494.953 410.537C488.422 410.848 481.787 410.608 475.245 410.607L438.157 410.605L416.206 410.612C412.86 410.618 409.296 410.97 405.99 410.557C404.505 414.732 403.201 418.93 401.294 422.944Q400.677 424.235 400.005 425.498Q399.333 426.761 398.609 427.994Q397.884 429.228 397.107 430.429Q396.33 431.631 395.503 432.798Q394.676 433.966 393.8 435.097Q392.924 436.228 392.001 437.321Q391.078 438.414 390.109 439.466Q389.14 440.519 388.127 441.529Q387.114 442.54 386.059 443.506Q385.004 444.472 383.909 445.393Q382.814 446.314 381.681 447.187Q380.548 448.06 379.378 448.884Q378.209 449.709 377.006 450.482Q375.802 451.256 374.567 451.978Q373.332 452.7 372.067 453.368Q370.802 454.037 369.51 454.651Q368.054 455.344 366.565 455.965Q365.077 456.586 363.559 457.134Q362.042 457.681 360.5 458.154Q358.958 458.626 357.395 459.023Q355.832 459.42 354.251 459.74Q352.67 460.06 351.075 460.302Q349.481 460.545 347.876 460.709Q346.272 460.873 344.661 460.958Q343.051 461.044 341.438 461.051Q339.825 461.057 338.214 460.985Q336.602 460.913 334.996 460.762Q333.391 460.612 331.794 460.383Q330.198 460.154 328.614 459.847Q327.031 459.54 325.464 459.156Q323.898 458.773 322.352 458.313Q320.806 457.853 319.284 457.318Q317.723 456.769 316.191 456.144Q314.658 455.518 313.159 454.818Q311.659 454.118 310.196 453.345Q308.733 452.571 307.31 451.727Q305.887 450.882 304.507 449.969Q303.127 449.055 301.794 448.074Q300.461 447.094 299.178 446.049Q297.894 445.003 296.664 443.896Q295.435 442.789 294.261 441.622Q293.087 440.456 291.972 439.233Q290.857 438.01 289.804 436.733Q288.751 435.457 287.762 434.13Q286.773 432.803 285.85 431.429Q284.928 430.055 284.075 428.637Q283.221 427.219 282.439 425.76Q281.656 424.302 280.947 422.807C279.064 418.815 277.897 414.839 276.617 410.649L94.0132 410.598L41.1726 410.599L25.077 410.621C21.9105 410.627 18.627 410.788 15.4765 410.46C11.3822 410.033 7.75046 408.803 4.80103 405.82C3.28695 404.289 2.05445 402.345 1.1645 400.39C0.76737 399.517 0.509665 398.529 0 397.723L0 391.002L0.103348 390.821C0.699355 389.754 1.06929 388.615 1.60369 387.523C3.59137 383.462 6.73975 380.371 11.1609 379.096C16.229 377.635 33.2311 378.35 39.2497 378.356L82.2387 378.363L276.383 378.374ZM337.18 360.117C327.015 361.849 318.89 365.877 312.823 374.534Q312.335 375.238 311.882 375.965Q311.429 376.692 311.013 377.441Q310.596 378.189 310.217 378.957Q309.837 379.725 309.496 380.511Q309.155 381.297 308.852 382.098Q308.55 382.9 308.288 383.715Q308.025 384.531 307.803 385.358Q307.58 386.185 307.399 387.022Q307.217 387.86 307.077 388.705Q306.937 389.55 306.838 390.401Q306.74 391.252 306.683 392.106Q306.626 392.961 306.612 393.818Q306.597 394.674 306.624 395.53Q306.652 396.387 306.721 397.24Q306.79 398.094 306.901 398.944Q307.012 399.793 307.165 400.636Q307.318 401.472 307.512 402.299Q307.706 403.127 307.94 403.943Q308.175 404.76 308.449 405.565Q308.724 406.369 309.037 407.159Q309.351 407.948 309.703 408.722Q310.055 409.495 310.445 410.25Q310.835 411.005 311.261 411.741Q311.688 412.476 312.15 413.189Q312.612 413.902 313.109 414.591Q313.606 415.281 314.136 415.945Q314.666 416.609 315.228 417.247Q315.79 417.884 316.383 418.493Q316.976 419.102 317.598 419.681Q318.22 420.26 318.87 420.807Q319.519 421.355 320.195 421.87Q320.871 422.385 321.572 422.866C328.353 427.54 336.37 429.47 344.551 428.767C354.484 427.457 362.724 423 368.873 414.982Q369.378 414.31 369.849 413.615Q370.32 412.919 370.756 412.202Q371.193 411.484 371.593 410.745Q371.994 410.007 372.358 409.25Q372.721 408.493 373.048 407.719Q373.374 406.944 373.662 406.155Q373.949 405.366 374.198 404.564Q374.447 403.761 374.656 402.948Q374.865 402.134 375.033 401.311Q375.202 400.488 375.33 399.658Q375.458 398.828 375.545 397.992Q375.633 397.157 375.679 396.318Q375.725 395.479 375.729 394.639Q375.734 393.799 375.698 392.96Q375.661 392.12 375.583 391.284Q375.506 390.448 375.387 389.616Q375.272 388.771 375.115 387.933Q374.958 387.094 374.76 386.265Q374.562 385.435 374.322 384.617Q374.083 383.798 373.804 382.992Q373.524 382.186 373.205 381.395Q372.886 380.604 372.528 379.83Q372.17 379.056 371.774 378.301Q371.378 377.545 370.945 376.811Q370.512 376.076 370.043 375.363Q369.575 374.651 369.071 373.962Q368.567 373.274 368.03 372.612Q367.493 371.949 366.924 371.314Q366.354 370.679 365.754 370.073Q365.154 369.467 364.524 368.892Q363.895 368.316 363.238 367.773Q362.58 367.229 361.897 366.719C354.489 361.183 346.271 359.49 337.18 360.117Z"/>
	<path d="M276.383 101.529C277.572 97.8426 278.732 94.1651 280.318 90.6247Q280.889 89.3308 281.514 88.0624Q282.14 86.794 282.819 85.5533Q283.497 84.3126 284.228 83.1019Q284.959 81.8911 285.741 80.7126Q286.523 79.534 287.354 78.3897Q288.185 77.2454 289.064 76.1374Q289.943 75.0295 290.868 73.9599Q291.793 72.8903 292.763 71.861Q293.733 70.8316 294.746 69.8445Q295.758 68.8573 296.812 67.914Q297.866 66.9708 298.959 66.0732Q300.052 65.1755 301.182 64.3252Q302.312 63.4748 303.477 62.6732Q304.642 61.8716 305.84 61.1203Q307.038 60.3689 308.267 59.6692Q309.496 58.9694 310.754 58.3225Q312.225 57.571 313.731 56.8932Q315.237 56.2153 316.775 55.6128Q318.312 55.0102 319.878 54.4844Q321.443 53.9586 323.033 53.5108Q324.623 53.063 326.233 52.6944Q327.843 52.3258 329.469 52.0372Q331.095 51.7486 332.733 51.5408Q334.372 51.3329 336.019 51.2063Q337.665 51.0797 339.316 51.0347Q340.967 50.9897 342.618 51.0263Q344.27 51.063 345.917 51.1812Q347.564 51.2994 349.204 51.499Q350.843 51.6985 352.471 51.9788Q354.098 52.2592 355.71 52.6196Q357.322 52.9801 358.914 53.4198Q360.506 53.8594 362.074 54.3773Q363.636 54.8969 365.171 55.4928Q366.706 56.0886 368.209 56.7593Q369.713 57.43 371.181 58.1739Q372.65 58.9178 374.08 59.7331Q375.511 60.5484 376.899 61.4332Q378.287 62.3179 379.63 63.2699Q380.974 64.2219 382.268 65.2389Q383.563 66.2559 384.806 67.3353Q386.049 68.4148 387.237 69.5542Q388.426 70.6936 389.557 71.89Q390.688 73.0865 391.758 74.3372Q392.829 75.5879 393.836 76.8898Q394.844 78.1917 395.786 79.5417Q396.729 80.8916 397.604 82.2863Q398.478 83.6809 399.284 85.117Q400.089 86.5531 400.822 88.027C402.974 92.3391 404.476 96.7818 405.823 101.391C413.987 101.778 422.239 101.539 430.413 101.536L473.306 101.525L487.849 101.524C491.489 101.524 495.25 101.327 498.844 101.966C502.268 102.574 505.198 104.037 507.572 106.622C509.827 109.078 510.458 111.786 512 114.574L512 120.48C509.907 125.814 507.629 129.942 502.193 132.452C500.225 133.36 497.517 133.628 495.369 133.743C489.308 134.067 483.112 133.818 477.039 133.815L442.391 133.807L417.478 133.812C413.675 133.816 409.689 134.164 405.915 133.828C404.612 137.781 403.356 141.708 401.601 145.49Q401.008 146.768 400.363 148.021Q399.717 149.273 399.019 150.498Q398.321 151.722 397.573 152.916Q396.824 154.11 396.026 155.271Q395.228 156.433 394.383 157.56Q393.537 158.687 392.644 159.777Q391.752 160.868 390.814 161.92Q389.877 162.972 388.896 163.984Q387.915 164.996 386.893 165.965Q385.87 166.935 384.808 167.861Q383.746 168.787 382.646 169.668Q381.546 170.549 380.41 171.382Q379.274 172.216 378.104 173.001Q376.934 173.787 375.732 174.522Q374.53 175.258 373.298 175.942Q372.066 176.627 370.807 177.259Q369.348 177.99 367.855 178.647Q366.362 179.305 364.838 179.889Q363.315 180.472 361.764 180.979Q360.213 181.487 358.64 181.917Q357.066 182.348 355.473 182.7Q353.88 183.052 352.271 183.325Q350.663 183.599 349.043 183.792Q347.423 183.986 345.795 184.099Q344.168 184.213 342.536 184.246Q340.905 184.279 339.274 184.232Q337.643 184.184 336.017 184.056Q334.39 183.929 332.772 183.721Q331.154 183.513 329.548 183.225Q327.942 182.938 326.352 182.572Q324.762 182.206 323.192 181.761Q321.622 181.317 320.076 180.796Q318.524 180.27 316.999 179.669Q315.474 179.067 313.981 178.393Q312.487 177.718 311.028 176.972Q309.569 176.225 308.148 175.409Q306.727 174.592 305.347 173.707Q303.968 172.823 302.633 171.872Q301.298 170.921 300.011 169.906Q298.724 168.892 297.487 167.816Q296.251 166.74 295.069 165.605Q293.886 164.47 292.761 163.279Q291.635 162.088 290.568 160.843Q289.502 159.599 288.497 158.304Q287.492 157.009 286.552 155.667Q285.611 154.325 284.737 152.939Q283.863 151.552 283.057 150.125Q282.251 148.698 281.516 147.233Q279.921 144.057 278.706 140.717Q277.49 137.378 276.672 133.919C269.146 133.473 261.423 133.814 253.875 133.815L210.889 133.812L78.0786 133.802L35.0439 133.817L22.6708 133.827C19.7709 133.834 16.7825 133.973 13.9057 133.562C10.2891 133.045 6.74295 131.187 4.28112 128.5C1.76262 125.751 1.63957 123.568 0 120.963L0 114.25L0.112373 114.047C3.11276 108.527 3.99249 104.482 10.9 102.425C16.6193 100.722 32.5387 101.547 39.3355 101.548L79.3424 101.537L276.383 101.529ZM337.911 83.3355C328.116 84.5829 319.912 88.5217 313.769 96.4758Q313.249 97.1552 312.762 97.8594Q312.276 98.5636 311.825 99.2908Q311.374 100.018 310.959 100.767Q310.544 101.515 310.167 102.283Q309.789 103.052 309.45 103.837Q309.111 104.623 308.811 105.425Q308.511 106.226 308.251 107.041Q307.991 107.857 307.771 108.684Q307.551 109.511 307.372 110.348Q307.194 111.185 307.056 112.03Q306.919 112.874 306.823 113.725Q306.728 114.575 306.674 115.429Q306.621 116.283 306.609 117.139Q306.598 117.995 306.628 118.85Q306.659 119.705 306.732 120.558Q306.804 121.411 306.919 122.259Q307.033 123.103 307.189 123.94Q307.345 124.777 307.541 125.605Q307.738 126.433 307.975 127.251Q308.213 128.069 308.49 128.874Q308.767 129.678 309.083 130.469Q309.4 131.259 309.755 132.033Q310.11 132.807 310.503 133.562Q310.895 134.318 311.325 135.053Q311.754 135.788 312.219 136.501Q312.684 137.214 313.184 137.903Q313.683 138.593 314.216 139.257Q314.749 139.921 315.314 140.557Q315.879 141.194 316.475 141.803Q317.07 142.411 317.695 142.989Q318.32 143.567 318.973 144.114Q319.625 144.661 320.304 145.175C327.522 150.669 335.969 152.642 344.918 151.991C354.881 150.41 363.146 146.027 369.194 137.775Q369.696 137.084 370.162 136.369Q370.629 135.654 371.06 134.916Q371.49 134.179 371.883 133.421Q372.276 132.663 372.631 131.886Q372.986 131.11 373.302 130.317Q373.618 129.523 373.894 128.715Q374.17 127.907 374.405 127.086Q374.641 126.265 374.835 125.434Q375.029 124.602 375.182 123.762Q375.334 122.922 375.445 122.075Q375.555 121.229 375.623 120.378Q375.692 119.526 375.717 118.673Q375.743 117.819 375.726 116.966Q375.71 116.112 375.65 115.26Q375.591 114.408 375.489 113.561Q375.388 112.713 375.244 111.871Q375.106 111.035 374.927 110.206Q374.748 109.377 374.528 108.559Q374.309 107.74 374.049 106.933Q373.789 106.126 373.489 105.333Q373.19 104.54 372.852 103.763Q372.513 102.986 372.137 102.226Q371.761 101.466 371.348 100.726Q370.934 99.9861 370.485 99.2673Q370.036 98.5485 369.551 97.8528Q369.067 97.157 368.549 96.4861Q368.031 95.8151 367.48 95.1706Q366.929 94.5261 366.348 93.9095Q365.766 93.2929 365.154 92.7059Q364.543 92.1188 363.903 91.5627Q363.263 91.0065 362.597 90.4827Q361.93 89.9588 361.239 89.4685Q360.612 89.0207 359.965 88.6018Q359.318 88.1829 358.653 87.7938Q357.987 87.4046 357.305 87.0461Q356.623 86.6875 355.925 86.3602Q355.227 86.033 354.515 85.7377Q353.804 85.4424 353.079 85.1797Q352.354 84.9171 351.619 84.6875Q350.883 84.4579 350.138 84.262Q349.392 84.066 348.639 83.904Q347.885 83.7421 347.125 83.6145Q346.365 83.4868 345.6 83.3938Q344.835 83.3008 344.066 83.2426Q343.298 83.1843 342.528 83.161Q341.757 83.1377 340.987 83.1493Q340.216 83.161 339.447 83.2075Q338.677 83.2541 337.911 83.3355Z"/>
</svg>
