<?xml version="1.0" encoding="utf-8" ?>
<svg xmlns="http://www.w3.org/2000/svg" xmlns:xlink="http://www.w3.org/1999/xlink" width="512" height="512">
	<path d="M0 0L91.1225 0L420.647 0L512 0L512 92.1447L512 420.115L512 512L421.118 512L91.3661 512L0 512L0 420.921L0 90.8321L0 0ZM125.699 106.108C119.682 106.509 114.697 107.727 110.587 112.468C107.937 115.525 106.492 119.113 106.136 123.128C105.699 128.059 105.988 133.197 105.991 138.153L106.002 165.793L106.005 253.952L106.006 345.082L106.001 373.335C105.992 378.49 105.679 383.81 106.108 388.938Q106.181 389.847 106.343 390.744Q106.506 391.641 106.757 392.517Q107.009 393.393 107.346 394.24Q107.683 395.087 108.103 395.897Q108.523 396.706 109.021 397.469Q109.52 398.232 110.091 398.942Q110.663 399.652 111.303 400.302Q111.943 400.951 112.644 401.534C115.808 404.191 119.364 405.52 123.461 405.847C128.91 406.283 134.539 406.007 140.01 406.003L169.548 405.988L262.966 405.988L347.815 405.989L374.205 405.999C379.113 406 384.224 406.268 389.11 405.808Q390.028 405.716 390.933 405.535Q391.838 405.353 392.721 405.084Q393.603 404.814 394.455 404.459Q395.307 404.103 396.119 403.666Q396.932 403.229 397.698 402.714Q398.463 402.198 399.175 401.61Q399.886 401.022 400.536 400.367Q401.186 399.712 401.768 398.996C403.931 396.326 405.146 393.407 405.651 390.015C406.369 385.193 406.019 380.026 406.017 375.145L406 350.559L406.022 326.265C406.031 321.632 406.31 316.797 405.82 312.193C405.272 307.043 403.046 302.484 398.98 299.203C395.959 296.765 392.632 295.666 388.808 295.262C383.664 294.886 378.816 296.27 374.903 299.683C370.735 303.318 368.864 307.974 368.557 313.422C368.268 318.564 368.483 323.823 368.484 328.976C368.488 342.201 368.803 355.502 368.395 368.718L311.96 368.775L209.685 368.771L164.332 368.777L150.003 368.773C147.828 368.768 145.597 368.618 143.43 368.729L143.482 143.489L182.505 143.468C187.954 143.471 197.129 144.108 202.147 143.037C205.556 142.309 208.994 140.344 211.456 137.897Q212.104 137.26 212.685 136.561Q213.266 135.862 213.775 135.109Q214.284 134.356 214.716 133.556Q215.147 132.756 215.496 131.917Q215.846 131.078 216.11 130.208Q216.375 129.339 216.551 128.447Q216.728 127.555 216.815 126.651Q216.902 125.746 216.898 124.837Q216.901 124.37 216.88 123.904Q216.86 123.438 216.816 122.973Q216.772 122.509 216.705 122.047Q216.638 121.585 216.547 121.127Q216.457 120.669 216.344 120.217Q216.232 119.764 216.096 119.317Q215.961 118.871 215.803 118.431Q215.646 117.992 215.466 117.561Q215.287 117.131 215.086 116.709Q214.885 116.288 214.664 115.877Q214.442 115.466 214.201 115.067Q213.959 114.668 213.698 114.282Q213.436 113.895 213.156 113.522Q212.875 113.149 212.576 112.791Q212.278 112.432 211.961 112.089Q211.645 111.746 211.312 111.419Q210.838 110.947 210.33 110.512Q209.822 110.077 209.282 109.681Q208.743 109.286 208.175 108.932Q207.607 108.578 207.014 108.268Q206.421 107.959 205.807 107.694Q205.192 107.43 204.559 107.213Q203.927 106.995 203.279 106.827Q202.632 106.658 201.974 106.538C198.17 105.851 193.982 106.066 190.125 106.067L175.034 106.074C158.931 106.086 142.776 105.8 126.681 106.086L125.699 106.108ZM385.117 106.328C381.505 106.792 378.578 107.739 375.705 110.06C372.845 112.372 370.3 115.129 367.707 117.731L356.234 129.242L317.462 168.025L281.514 203.978L270.571 214.894C268.312 217.148 265.87 219.352 263.873 221.843C264.027 206.38 263.85 190.895 263.851 175.43L263.849 161.354C263.848 157.311 264.049 153.168 263.271 149.182C262.57 145.591 261.058 142.565 258.49 139.934C254.94 136.298 250.294 134.438 245.237 134.427C239.988 134.415 235.388 136.073 231.664 139.84C229.013 142.521 227.317 145.778 226.693 149.492C225.851 154.504 226.221 159.909 226.221 164.988L226.223 188.809L226.23 240.637C226.23 249.024 226.085 257.434 226.218 265.819C226.307 271.382 228.002 276.56 232.072 280.49C236.548 284.812 241.704 285.629 247.688 285.613L326.872 285.593L349.052 285.601C353.632 285.601 358.539 285.961 363.061 285.177C366.433 284.592 369.751 282.546 372.15 280.149C375.714 276.589 377.709 272.042 377.716 266.996Q377.719 266.071 377.631 265.15Q377.542 264.229 377.364 263.321Q377.185 262.413 376.917 261.527Q376.65 260.642 376.296 259.787Q375.943 258.932 375.506 258.116Q375.07 257.3 374.556 256.531Q374.041 255.762 373.453 255.048Q372.865 254.334 372.209 253.681C369.97 251.46 366.966 249.613 363.865 248.932C357.652 247.567 344.595 248.238 337.76 248.241Q313.963 248.38 290.167 248.09C294.089 245.141 300.009 238.364 303.764 234.597L333.114 205.264L379.032 159.337L393.231 145.169C396.045 142.362 399.066 139.612 401.618 136.57C403.843 133.917 405.248 130.911 405.742 127.477Q405.874 126.558 405.914 125.63Q405.955 124.702 405.905 123.775Q405.855 122.848 405.714 121.93Q405.573 121.012 405.343 120.113Q405.113 119.213 404.796 118.34Q404.479 117.468 404.078 116.63Q403.677 115.793 403.196 114.998Q402.715 114.204 402.158 113.461Q401.615 112.745 401.004 112.085Q400.393 111.425 399.721 110.828Q399.049 110.23 398.322 109.702Q397.595 109.173 396.819 108.717Q396.044 108.262 395.228 107.885Q394.412 107.507 393.563 107.211Q392.714 106.915 391.84 106.703Q390.966 106.492 390.076 106.366Q387.599 106.016 385.117 106.328ZM421.118 512L512 512L512 420.115C511.976 420.195 511.95 420.275 511.927 420.356C511.105 423.212 510.876 426.356 510.393 429.293Q509.435 435.159 507.713 440.847Q507.361 441.998 506.981 443.14Q506.602 444.283 506.195 445.416Q505.788 446.549 505.355 447.672Q504.921 448.795 504.461 449.907Q504.001 451.019 503.514 452.12Q503.027 453.221 502.514 454.31Q502.002 455.399 501.463 456.476Q500.924 457.552 500.36 458.616Q499.796 459.679 499.206 460.729Q498.617 461.778 498.002 462.813Q497.388 463.849 496.749 464.869Q496.11 465.889 495.447 466.894Q494.784 467.898 494.097 468.887Q493.41 469.875 492.7 470.847Q491.99 471.819 491.257 472.774Q490.523 473.729 489.767 474.665Q489.012 475.602 488.234 476.521Q487.456 477.439 486.656 478.339Q485.856 479.239 485.035 480.119Q484.214 481 483.373 481.86Q482.531 482.721 481.669 483.561Q480.807 484.401 479.925 485.221Q479.043 486.04 478.142 486.838Q477.241 487.636 476.321 488.413Q475.401 489.189 474.463 489.943Q473.524 490.697 472.568 491.429Q471.612 492.16 470.639 492.869Q469.666 493.577 468.676 494.263Q467.687 494.948 466.681 495.609Q465.675 496.27 464.654 496.907Q463.632 497.544 462.596 498.157Q461.56 498.769 460.509 499.357C452.197 504.035 442.867 507.77 433.513 509.708C430.541 510.324 423.451 510.895 421.118 512ZM420.647 0C420.719 0.0250124 420.791 0.0512703 420.864 0.0750373C423.542 0.948555 426.705 1.08007 429.493 1.55665C433.724 2.27976 437.965 3.34535 442.062 4.62073Q443.231 4.99457 444.39 5.39674Q445.549 5.79891 446.698 6.22917Q447.847 6.65942 448.986 7.11751Q450.124 7.5756 451.251 8.06126Q452.377 8.54691 453.492 9.05984Q454.607 9.57277 455.709 10.1127Q456.81 10.6526 457.899 11.2191Q458.987 11.7857 460.061 12.3785Q461.136 12.9714 462.195 13.5902Q463.255 14.2091 464.299 14.8535Q465.343 15.4979 466.371 16.1676Q467.399 16.8372 468.411 17.5317Q469.422 18.2262 470.417 18.945Q471.411 19.6639 472.388 20.4068Q473.364 21.1496 474.322 21.916Q475.281 22.6824 476.22 23.4719Q477.159 24.2614 478.079 25.0735Q478.999 25.8857 479.899 26.7199Q480.798 27.5542 481.677 28.4101Q482.557 29.266 483.415 30.143Q484.273 31.0201 485.109 31.9177Q485.946 32.8154 486.76 33.7331Q487.575 34.6509 488.367 35.5882Q489.158 36.5255 489.927 37.4818Q490.696 38.438 491.441 39.4128Q492.186 40.3875 492.908 41.38Q493.629 42.3726 494.326 43.3824Q495.023 44.3922 495.695 45.4187Q496.368 46.4452 497.015 47.4877Q497.662 48.5303 498.283 49.5882Q498.905 50.6462 499.5 51.719Q500.096 52.7917 500.665 53.8787Q502.309 57.0056 503.719 60.2444Q505.13 63.4831 506.3 66.8164Q507.47 70.1497 508.393 73.5596Q509.316 76.9696 509.987 80.4379C510.681 84.1321 510.833 88.6841 512 92.1447L512 0L420.647 0ZM0 420.921L0 512L91.3661 512C87.4357 510.713 82.8431 510.505 78.7531 509.704C70.9472 508.176 63.2763 505.312 56.1435 501.817Q55.0003 501.257 53.8717 500.669Q52.743 500.08 51.6297 499.463Q50.5163 498.846 49.419 498.201Q48.3216 497.556 47.241 496.883Q46.1604 496.211 45.0972 495.511Q44.0339 494.811 42.9888 494.084Q41.9437 493.358 40.9173 492.605Q39.891 491.852 38.8841 491.073Q37.8771 490.295 36.8903 489.491Q35.9034 488.687 34.9373 487.858Q33.9711 487.029 33.0263 486.176Q32.0815 485.323 31.1586 484.447Q30.2358 483.57 29.3354 482.67Q28.4351 481.77 27.5579 480.848Q26.6807 479.926 25.8271 478.981Q24.9736 478.037 24.1442 477.071Q23.3149 476.106 22.5104 475.119Q21.7058 474.133 20.9265 473.127Q20.1472 472.12 19.3937 471.094Q18.6402 470.068 17.913 469.024Q17.1858 467.979 16.4853 466.916Q15.7847 465.853 15.1114 464.773Q14.4381 463.693 13.7924 462.596Q13.1467 461.499 12.529 460.386Q11.9113 459.273 11.3221 458.145Q10.7329 457.016 10.1724 455.874Q9.61198 454.731 9.08072 453.574Q8.54945 452.417 8.0477 451.247Q7.54594 450.078 7.07402 448.896Q6.6021 447.713 6.16032 446.52Q5.71854 445.326 5.30718 444.121Q4.89581 442.917 4.51514 441.702C3.4017 438.169 2.41612 434.533 1.80772 430.878C1.31529 427.92 1.20121 424.146 0.17325 421.367C0.117893 421.218 0.05775 421.07 0 420.921ZM0 0L0 90.8321C1.35385 88.0857 1.46089 82.4423 2.17906 79.1891Q3.55842 72.752 5.76954 66.5512Q7.98067 60.3504 10.9854 54.4929Q11.5587 53.3715 12.1601 52.2649Q12.7615 51.1583 13.3905 50.0672Q14.0195 48.9761 14.6757 47.9011Q15.3319 46.8261 16.015 45.768Q16.698 44.7099 17.4074 43.6693Q18.1169 42.6286 18.8522 41.6062Q19.5876 40.5837 20.3485 39.5801Q21.1093 38.5764 21.8951 37.5922Q22.681 36.608 23.4913 35.6439Q24.3016 34.6798 25.136 33.7363Q25.9703 32.7929 26.8281 31.8707Q27.6858 30.9485 28.5665 30.0482Q29.4472 29.1479 30.3503 28.27Q31.2533 27.3921 32.1781 26.5372Q33.103 25.6823 34.049 24.8509Q34.995 24.0195 35.9617 23.2121Q36.9283 22.4048 37.915 21.622Q38.9016 20.8392 39.9076 20.0815Q40.9136 19.3238 41.9383 18.5916Q42.9631 17.8594 44.0059 17.1532Q45.0487 16.447 46.1089 15.7672Q47.1692 15.0874 48.2462 14.4345Q49.3232 13.7817 50.4162 13.1561Q51.5093 12.5304 52.6178 11.9325Q53.7262 11.3346 54.8494 10.7647Q55.9725 10.1949 57.1096 9.6534Q58.2467 9.11195 59.3971 8.59926Q60.5475 8.08657 61.7104 7.60296Q62.8732 7.11936 64.0479 6.66514Q65.2226 6.21092 66.4083 5.78638Q67.5941 5.36185 68.7901 4.96725Q69.9861 4.57266 71.1917 4.20826Q76.6678 2.58231 82.2944 1.59661C85.0741 1.13411 88.2735 0.9525 90.9208 0.0709425C90.9884 0.0484304 91.0552 0.0236475 91.1225 0L0 0Z"/>
</svg>
