<?xml version="1.0" encoding="utf-8" ?>
<svg xmlns="http://www.w3.org/2000/svg" xmlns:xlink="http://www.w3.org/1999/xlink" width="512" height="512">
	<path d="M107.67 43.2726C119.433 39.9884 129.141 39.8716 141.081 41.7228C134.216 42.889 127.057 41.5008 120.135 41.8484C115.986 42.0566 111.82 43.5252 107.67 43.2726Z"/>
	<path d="M363.661 43.264C375.455 40.0005 385.096 39.868 397.076 41.7209C390.094 42.9469 382.677 41.5538 375.613 41.8445C371.678 42.0064 367.587 43.7172 363.661 43.264Z"/>
	<path d="M80.228 197.216C83.7888 196.618 87.327 196.48 90.917 196.186C93.4355 195.98 95.945 195.587 98.4703 195.482C109.333 195.033 120.395 195.435 131.281 195.444L147.685 195.464C151.321 195.449 155.013 195.304 158.643 195.505C161.215 195.647 164.184 195.893 166.614 196.779C167.077 197.288 167.028 197.616 167.116 198.292C167.349 200.074 167.282 201.93 167.405 203.727C167.651 207.351 168.271 211.578 169.261 215.076C173.741 230.9 180.863 245.119 192.463 256.923L191.508 256.882C190.988 256.443 190.664 256.145 189.959 256.053C189.854 255.949 189.75 255.844 189.642 255.742C179.411 245.997 172.919 231.37 169.042 217.976C168.536 216.228 167.734 214.471 167.404 212.694C166.978 210.398 166.845 208.01 166.487 205.695C166.345 204.776 165.943 203.93 165.826 203.012C165.625 201.431 166.449 199.243 165.511 197.891C164.926 197.457 164.46 197.404 163.761 197.314C163.315 197.256 163.262 197.006 162.985 196.67C159.799 197.113 156.585 196.978 153.377 196.997Q146.585 197.07 139.793 197.073L93.3422 196.759C89.1752 196.691 84.7673 197.977 80.6629 197.291L80.228 197.216Z"/>
	<path d="M363.661 43.264C367.587 43.7172 371.678 42.0064 375.613 41.8445C382.677 41.5538 390.094 42.9469 397.076 41.7209C414.09 43.8039 432.065 55.2675 442.505 68.6205C456.262 86.2156 460.591 105.608 457.929 127.533C455.685 146.016 444.749 163.726 430.097 175.027C416.548 185.477 401.073 190.606 384.008 190.6C381.147 190.599 378.264 190.675 375.423 190.303C370.966 189.719 355.556 186.799 352.89 183.593C351.415 181.819 350.18 172.424 349.442 169.625Q348.932 167.694 348.338 165.786Q347.744 163.878 347.068 161.998Q346.393 160.119 345.636 158.27Q344.879 156.421 344.042 154.607Q343.206 152.792 342.292 151.016Q341.377 149.24 340.387 147.505Q339.396 145.77 338.331 144.08Q337.266 142.389 336.129 140.747Q334.992 139.104 333.784 137.513Q332.577 135.921 331.301 134.384Q330.026 132.846 328.685 131.365Q327.344 129.884 325.94 128.463Q324.536 127.042 323.072 125.683Q321.608 124.324 320.086 123.029Q318.564 121.735 316.987 120.508Q315.41 119.281 313.782 118.124C312.283 117.075 310.859 115.728 309.28 114.828L309.267 114.514L309.324 114.465C309.452 109.98 309.235 105.601 310.252 101.198C311.33 92.779 315.262 84.3437 319.519 77.0791C322.24 72.4356 325.626 67.6455 329.326 63.7264C338.159 54.3696 351.2 46.487 363.661 43.264ZM310.252 101.198C309.235 105.601 309.452 109.98 309.324 114.465C309.807 114.257 309.569 114.409 310.006 113.964C310.685 109.69 310.691 105.502 310.252 101.198Z"/>
	<path d="M310.252 101.198C310.691 105.502 310.685 109.69 310.006 113.964C309.569 114.409 309.807 114.257 309.324 114.465C309.452 109.98 309.235 105.601 310.252 101.198Z"/>
	<path d="M107.67 43.2726C111.82 43.5252 115.986 42.0566 120.135 41.8484C127.057 41.5008 134.216 42.889 141.081 41.7228C158.597 43.8029 176.309 55.6636 187.023 69.3064C194.618 78.9786 200.176 91.3125 201.878 103.544C202.171 105.643 202.103 107.749 202.278 109.854C202.493 112.431 203.233 115.1 202.954 117.691C202.798 119.141 202.315 120.185 201.326 121.255C199.933 122.763 198.186 123.99 196.638 125.334C194.615 127.091 192.632 129.064 190.86 131.069Q189.027 133.161 187.315 135.353Q185.604 137.545 184.018 139.83Q182.433 142.115 180.979 144.486Q179.524 146.857 178.206 149.306Q176.888 151.756 175.71 154.275Q174.533 156.795 173.499 159.377Q172.465 161.959 171.578 164.595Q170.692 167.231 169.955 169.913C169.122 172.882 168 176.203 167.966 179.305C158.017 184.86 147.258 189.562 135.743 190.493C133.048 190.711 130.278 190.61 127.574 190.603C120.584 190.584 113.906 189.8 107.156 187.91C87.8692 182.508 71.468 168.733 61.7215 151.371C57.8524 144.48 54.8265 135.241 53.798 127.383C53.4872 125.008 53.5511 122.623 53.3691 120.241C53.2462 118.632 52.4906 116.077 52.8706 114.612C52.8946 114.519 52.9346 114.431 52.9667 114.34L53.1899 114.237C53.0988 110.013 53.2949 105.311 54.2531 101.194C55.1592 92.7078 59.5267 83.7962 63.8526 76.5186C73.3916 60.471 89.4842 47.9203 107.67 43.2726ZM54.2531 101.194C53.2949 105.311 53.0988 110.013 53.1899 114.237C53.4313 114.129 53.7096 114.016 53.8624 113.784C54.9202 112.181 54.5107 103.49 54.2531 101.194Z"/>
	<path d="M54.2531 101.194C54.5107 103.49 54.9202 112.181 53.8624 113.784C53.7096 114.016 53.4313 114.129 53.1899 114.237C53.0988 110.013 53.2949 105.311 54.2531 101.194Z"/>
	<path d="M242.881 120.006C253.247 117.33 269.036 117.77 279.464 120.597Q282.433 121.44 285.328 122.509Q288.223 123.579 291.027 124.869Q293.831 126.158 296.528 127.66Q299.224 129.162 301.796 130.868C317.238 141.135 329.244 158.493 332.876 176.754C334.044 182.626 334.368 188.338 334.308 194.312C334.153 209.63 330.634 222.466 322.031 235.232C311.087 251.471 293.383 263.377 274.125 267.002Q272.287 267.355 270.433 267.617Q268.58 267.879 266.716 268.048Q264.852 268.218 262.982 268.295Q261.111 268.372 259.24 268.357Q257.368 268.341 255.499 268.233Q253.631 268.125 251.77 267.924Q249.909 267.723 248.06 267.431Q246.211 267.138 244.379 266.755Q242.547 266.371 240.736 265.897Q238.925 265.423 237.14 264.86Q235.355 264.297 233.6 263.646Q231.845 262.995 230.124 262.258Q228.404 261.521 226.722 260.7Q225.04 259.879 223.4 258.976Q221.761 258.072 220.169 257.089Q218.576 256.105 217.034 255.044C201.365 244.371 189.561 226.867 186.105 208.194C185.428 204.539 184.753 200.69 184.547 196.979C183.637 180.525 188.855 163.421 198.187 149.909C208.195 135.416 225.399 123.247 242.881 120.006ZM242.881 120.006C245.274 120.223 247.677 120.025 250.075 119.974C253.747 119.896 257.456 119.886 261.13 119.884C264.005 119.882 267.588 120.54 270.356 120.054C273.193 119.555 276.765 123.148 279.464 120.597C269.036 117.77 253.247 117.33 242.881 120.006Z"/>
	<path d="M242.881 120.006C253.247 117.33 269.036 117.77 279.464 120.597C276.765 123.148 273.193 119.555 270.356 120.054C267.588 120.54 264.005 119.882 261.13 119.884C257.456 119.886 253.747 119.896 250.075 119.974C247.677 120.025 245.274 120.223 242.881 120.006Z"/>
	<path d="M352.563 195.666C355.439 195.248 358.488 195.427 361.392 195.427L375.214 195.433L399.088 195.466C404.068 195.449 409.13 195.233 414.102 195.495C416.615 195.627 419.099 196.045 421.603 196.268C423.766 196.461 425.953 196.386 428.099 196.741Q429.246 196.882 430.388 197.051Q431.531 197.22 432.669 197.417Q433.808 197.614 434.941 197.838Q436.074 198.063 437.201 198.315Q438.329 198.566 439.45 198.846Q440.571 199.125 441.684 199.431Q442.798 199.738 443.904 200.071Q445.01 200.404 446.108 200.764Q447.206 201.124 448.294 201.511Q449.383 201.898 450.462 202.311Q451.54 202.724 452.609 203.163Q453.677 203.602 454.735 204.067Q455.792 204.532 456.838 205.022Q457.884 205.513 458.918 206.029Q459.952 206.544 460.972 207.085Q461.993 207.626 463.001 208.191Q464.008 208.756 465.001 209.346Q465.995 209.936 466.973 210.549Q467.952 211.163 468.916 211.8Q469.879 212.438 470.827 213.098Q471.775 213.759 472.706 214.442Q473.638 215.125 474.552 215.831Q475.467 216.537 476.364 217.264Q477.261 217.992 478.14 218.741Q479.019 219.491 479.88 220.261Q480.741 221.032 481.582 221.823Q482.424 222.614 483.246 223.426Q484.069 224.237 484.871 225.068Q485.673 225.899 486.455 226.75Q487.237 227.6 487.998 228.469Q488.759 229.338 489.499 230.226Q490.238 231.113 490.956 232.018Q492.637 234.159 494.197 236.39Q495.758 238.621 497.193 240.934Q498.628 243.247 499.934 245.635Q501.24 248.024 502.412 250.481Q503.585 252.938 504.62 255.455Q505.656 257.973 506.551 260.543Q507.446 263.114 508.199 265.73Q508.952 268.346 509.559 271C510.008 272.905 510.077 274.902 510.332 276.841C510.651 279.264 511.304 282.05 512 284.401L512 369.845C508.813 371.839 505.214 373.268 501.767 374.746C482.182 383.145 461.065 387.688 440.041 390.638C435.494 391.276 430.876 392.01 426.306 392.43C423.81 392.66 421.272 392.415 418.768 392.597C414.292 392.921 410.163 393.835 405.62 393.591C405.07 387.666 405.481 381.387 405.493 375.43C405.503 370.91 405.693 366.294 405.376 361.787C404.614 350.952 401.893 340.078 398.19 329.906Q397.729 328.653 397.239 327.41Q396.749 326.168 396.23 324.938Q395.711 323.708 395.162 322.49Q394.614 321.272 394.037 320.068Q393.46 318.864 392.855 317.673Q392.25 316.483 391.616 315.307Q390.983 314.132 390.322 312.971Q389.661 311.811 388.973 310.667Q388.284 309.522 387.569 308.394Q386.854 307.267 386.113 306.156Q385.371 305.045 384.603 303.953Q383.836 302.86 383.042 301.786Q382.249 300.712 381.431 299.657Q380.612 298.601 379.769 297.566Q378.925 296.531 378.058 295.515Q377.19 294.5 376.299 293.506Q375.408 292.511 374.493 291.538Q373.579 290.565 372.641 289.614Q371.704 288.663 370.744 287.734Q369.785 286.806 368.803 285.9Q367.822 284.994 366.819 284.112Q365.817 283.23 364.794 282.371Q363.771 281.513 362.728 280.679Q361.685 279.846 360.622 279.037Q359.56 278.228 358.478 277.444Q357.397 276.661 356.297 275.903Q355.198 275.145 354.08 274.414Q352.963 273.683 351.829 272.978Q350.695 272.273 349.544 271.595Q348.393 270.917 347.227 270.267Q346.061 269.617 344.879 268.994Q343.698 268.371 342.502 267.777C338.759 265.875 334.736 264.224 330.816 262.731C328.698 261.925 326.533 261.25 324.482 260.276L324.149 260.116C325.489 258.469 327.106 257.012 328.53 255.43C330.308 253.455 331.942 251.314 333.57 249.214C340.997 239.636 346.763 227.815 349.631 216.016C350.716 211.553 351.339 207.015 352.181 202.506C352.428 200.239 352.47 197.944 352.563 195.666ZM352.563 195.666C352.47 197.944 352.428 200.239 352.181 202.506C352.24 202.595 352.311 202.677 352.359 202.772C352.586 203.214 352.562 203.344 352.919 203.755C352.897 201.998 353.023 199.038 353.771 197.455C353.919 197.141 353.885 197.179 354.215 197.119C355.824 196.829 357.84 197.067 359.492 197.068L371.349 197.087Q391.587 197.182 411.825 196.998C413.087 196.992 417.189 197.449 418.041 197.087C418.339 196.961 418.498 196.779 418.842 196.725C419.828 196.572 421.245 197.011 422.292 197.044C424.227 197.105 426.172 196.904 428.099 196.741C425.953 196.386 423.766 196.461 421.603 196.268C419.099 196.045 416.615 195.627 414.102 195.495C409.13 195.233 404.068 195.449 399.088 195.466L375.214 195.433L361.392 195.427C358.488 195.427 355.439 195.248 352.563 195.666Z"/>
	<path d="M352.563 195.666C355.439 195.248 358.488 195.427 361.392 195.427L375.214 195.433L399.088 195.466C404.068 195.449 409.13 195.233 414.102 195.495C416.615 195.627 419.099 196.045 421.603 196.268C423.766 196.461 425.953 196.386 428.099 196.741C426.172 196.904 424.227 197.105 422.292 197.044C421.245 197.011 419.828 196.572 418.842 196.725C418.498 196.779 418.339 196.961 418.041 197.087C417.189 197.449 413.087 196.992 411.825 196.998Q391.587 197.182 371.349 197.087L359.492 197.068C357.84 197.067 355.824 196.829 354.215 197.119C353.885 197.179 353.919 197.141 353.771 197.455C353.023 199.038 352.897 201.998 352.919 203.755C352.562 203.344 352.586 203.214 352.359 202.772C352.311 202.677 352.24 202.595 352.181 202.506C352.428 200.239 352.47 197.944 352.563 195.666Z"/>
	<path d="M80.228 197.216L80.6629 197.291C84.7673 197.977 89.1752 196.691 93.3422 196.759L139.793 197.073Q146.585 197.07 153.377 196.997C156.585 196.978 159.799 197.113 162.985 196.67C163.262 197.006 163.315 197.256 163.761 197.314C164.46 197.404 164.926 197.457 165.511 197.891C166.449 199.243 165.625 201.431 165.826 203.012C165.943 203.93 166.345 204.776 166.487 205.695C166.845 208.01 166.978 210.398 167.404 212.694C167.734 214.471 168.536 216.228 169.042 217.976C172.919 231.37 179.411 245.997 189.642 255.742C189.75 255.844 189.854 255.949 189.959 256.053C190.664 256.145 190.988 256.443 191.508 256.882L192.463 256.923C193.26 257.714 194.337 258.526 194.412 259.721C194.439 260.149 194.3 260.472 194.021 260.805C193.137 261.859 190.387 262.25 189.054 262.688C180.561 266.033 172.346 269.932 164.7 274.952C146.29 287.04 131.745 305.034 122.964 325.16C118.694 334.945 115.498 346.704 114.352 357.329C114.091 359.749 114.129 362.192 113.946 364.617C113.772 366.907 113.429 369.188 113.349 371.484C113.211 375.487 113.963 390.409 112.935 392.981C111.561 393.164 109.868 392.765 108.462 392.654L96.6302 391.713Q80.2698 390.098 64.0775 387.255Q47.8852 384.412 31.953 380.358C24.3357 378.356 16.6826 376.231 9.12522 374.014C6.09274 373.124 3.07315 371.905 0 371.193L0 283.371C1.21528 279.137 1.25374 274.908 2.18458 270.656C5.00001 257.795 10.8815 245.635 18.5504 234.978Q19.2345 234.042 19.9413 233.123Q20.648 232.204 21.377 231.303Q22.1059 230.402 22.8566 229.518Q23.6074 228.635 24.3794 227.77Q25.1514 226.906 25.9443 226.06Q26.7372 225.214 27.5504 224.388Q28.3637 223.562 29.1968 222.756Q30.03 221.95 30.8826 221.165Q31.7351 220.379 32.6066 219.615Q33.4781 218.85 34.3679 218.107Q35.2578 217.364 36.1654 216.643Q37.0731 215.922 37.9981 215.223Q38.9232 214.525 39.8649 213.849Q40.8067 213.173 41.7647 212.52Q42.7226 211.867 43.6962 211.238Q44.6698 210.609 45.6585 210.004Q46.6471 209.398 47.6503 208.817Q48.6534 208.236 49.6704 207.68Q50.6873 207.123 51.7176 206.592Q52.7478 206.061 53.7907 205.554Q54.8336 205.048 55.8886 204.568Q56.9435 204.087 58.0098 203.632Q59.0762 203.178 60.1533 202.749Q61.2304 202.321 62.3176 201.918Q63.4048 201.516 64.5016 201.141Q65.5983 200.765 66.7038 200.416Q67.8094 200.068 68.9231 199.746Q70.0368 199.425 71.158 199.13Q72.2793 198.836 73.4073 198.569Q74.5354 198.302 75.6697 198.062Q76.8039 197.823 77.9437 197.611Q79.0834 197.4 80.228 197.216ZM189.959 256.053C190.455 256.717 191.623 257.799 191.589 258.648C191.58 258.865 191.527 258.998 191.465 259.196C191.794 259.821 192.528 259.687 192.411 260.253C191.271 260.802 188.8 261.108 188.094 261.963C188.401 262.375 188.572 262.507 189.054 262.688C190.387 262.25 193.137 261.859 194.021 260.805C194.3 260.472 194.439 260.149 194.412 259.721C194.337 258.526 193.26 257.714 192.463 256.923L191.508 256.882C190.988 256.443 190.664 256.145 189.959 256.053Z"/>
	<path d="M189.959 256.053C190.664 256.145 190.988 256.443 191.508 256.882L192.463 256.923C193.26 257.714 194.337 258.526 194.412 259.721C194.439 260.149 194.3 260.472 194.021 260.805C193.137 261.859 190.387 262.25 189.054 262.688C188.572 262.507 188.401 262.375 188.094 261.963C188.8 261.108 191.271 260.802 192.411 260.253C192.528 259.687 191.794 259.821 191.465 259.196C191.527 258.998 191.58 258.865 191.589 258.648C191.623 257.799 190.455 256.717 189.959 256.053Z"/>
	<path d="M131.605 448.166C131.241 443.745 131.476 439.142 131.478 434.705L131.486 409.735L131.471 383.183C131.47 378.389 131.299 373.52 131.521 368.735C131.623 366.54 131.983 364.347 132.185 362.158C133.777 344.844 138.017 330.966 147.642 316.315Q148.287 315.341 148.955 314.383Q149.623 313.425 150.315 312.484Q151.006 311.542 151.72 310.618Q152.435 309.694 153.172 308.788Q153.908 307.882 154.667 306.994Q155.426 306.106 156.206 305.236Q156.986 304.367 157.787 303.517Q158.589 302.667 159.41 301.837Q160.232 301.007 161.074 300.198Q161.916 299.388 162.777 298.599Q163.639 297.81 164.519 297.043Q165.4 296.276 166.299 295.53Q167.198 294.784 168.115 294.061Q169.032 293.337 169.966 292.636Q170.9 291.936 171.852 291.258Q172.803 290.58 173.771 289.926Q174.738 289.272 175.721 288.641Q176.705 288.011 177.703 287.405Q178.702 286.799 179.714 286.217Q180.727 285.636 181.754 285.079Q182.781 284.523 183.821 283.991Q184.862 283.46 185.915 282.954Q186.967 282.449 188.032 281.969Q189.097 281.489 190.174 281.036Q191.25 280.582 192.337 280.155Q193.424 279.728 194.522 279.328Q195.619 278.928 196.726 278.554Q197.832 278.181 198.948 277.835Q200.063 277.489 201.187 277.17Q202.311 276.851 203.442 276.56Q204.573 276.269 205.711 276.006Q206.849 275.742 207.993 275.507C211.88 274.7 215.978 273.914 219.937 273.615C226.209 273.141 232.666 273.476 238.958 273.477L264.248 273.477L285.936 273.472C290.471 273.465 295.077 273.307 299.603 273.611C303.747 273.89 308.063 274.742 312.131 275.602C324.164 278.148 334.572 282.776 344.828 289.502C353.992 295.435 364.026 304.849 369.902 314.042C379.315 325.429 385.604 345.227 386.999 359.698C387.563 365.55 387.25 371.631 387.243 377.512L387.241 406.99L387.244 432.576C387.25 437.552 387.509 442.649 387.095 447.607C384.912 449.704 378.625 451.812 375.655 453.063C351.355 463.298 322.644 467.949 296.472 470.369C292.857 470.703 289.183 470.455 285.556 470.595C283.375 470.68 281.213 471.087 279.047 471.338C275.257 471.778 271.318 471.567 267.499 471.568C263.385 471.569 259.189 471.722 255.087 471.477C252.35 471.313 249.633 470.866 246.895 470.678C243.98 470.477 241.043 470.642 238.13 470.402Q226.58 469.453 215.093 467.914Q203.606 466.375 192.213 464.25Q180.82 462.126 169.551 459.421Q158.281 456.716 147.165 453.439C143.553 452.377 134.298 450.288 131.605 448.166ZM344.828 289.502C344.866 289.971 344.911 290.422 345.003 290.884L344.111 290.651L344.044 291.03C345.343 291.694 346.547 292.271 347.668 293.215C349.147 294.46 350.834 295.457 352.292 296.731C354.476 298.641 356.462 300.904 358.509 302.969C360.88 305.359 363.378 307.631 365.591 310.173C366.778 311.537 368.009 313.745 369.902 314.042C364.026 304.849 353.992 295.435 344.828 289.502Z"/>
	<path d="M344.828 289.502C353.992 295.435 364.026 304.849 369.902 314.042C368.009 313.745 366.778 311.537 365.591 310.173C363.378 307.631 360.88 305.359 358.509 302.969C356.462 300.904 354.476 298.641 352.292 296.731C350.834 295.457 349.147 294.46 347.668 293.215C346.547 292.271 345.343 291.694 344.044 291.03L344.111 290.651L345.003 290.884C344.911 290.422 344.866 289.971 344.828 289.502Z"/>
</svg>
